<svg width="52" height="52" viewBox="0 0 52 52" fill="none" xmlns="http://www.w3.org/2000/svg">
<g clip-path="url(#clip0_48_51)">
<path d="M35.7022 13.8987C35.9137 13.8987 36.127 13.8819 36.34 13.8482C37.4001 13.6801 38.3312 13.1092 38.9619 12.2408L42.7893 6.9709C42.9444 6.75732 42.9779 6.47863 42.8777 6.23437C42.7776 5.99012 42.5581 5.81512 42.2977 5.77186C42.2299 5.76059 40.7288 5.51409 38.8959 5.49378C38.3089 3.75767 37.6114 2.407 37.5792 2.34484C37.4576 2.11054 37.2233 1.95596 36.96 1.93636C36.6971 1.91625 36.442 2.03467 36.287 2.24836L32.4596 7.51822C31.8289 8.38668 31.5741 9.44872 31.7421 10.5088C31.8666 11.2938 32.2124 12.0077 32.7358 12.5816C32.1564 13.2701 31.1363 14.523 30.0179 16.0822V15.4161C30.0179 14.9954 29.6769 14.6544 29.2562 14.6544C28.8355 14.6544 28.4945 14.9954 28.4945 15.4161V18.3265C27.8832 19.2834 27.2878 20.2952 26.7614 21.3223V17.0447C26.7614 17.0446 26.7614 17.0444 26.7614 17.0442V15.7317L28.9808 13.5123C29.2782 13.2149 29.2782 12.7325 28.9808 12.4352C28.6833 12.1377 28.201 12.1377 27.9036 12.4352L26.7612 13.5772V11.2197C28.6137 10.8626 30.0177 9.22995 30.0177 7.27478V0.761688C30.0177 0.497728 29.881 0.252557 29.6565 0.113721C29.4319 -0.0251148 29.1516 -0.0377085 28.9154 0.0804085C28.8538 0.111182 27.4955 0.794391 25.9996 1.8546C24.5044 0.794798 23.1462 0.11169 23.0837 0.0804085C22.8474 -0.0377085 22.567 -0.0250132 22.3426 0.113721C22.118 0.252557 21.9813 0.497728 21.9813 0.761688V7.27478C21.9813 9.22995 23.3853 10.8627 25.2378 11.2197V15.2055L23.2816 13.2493C22.9841 12.9518 22.5018 12.9518 22.2044 13.2493C21.907 13.5468 21.907 14.0291 22.2044 14.3265L25.2379 17.3599V21.3223C23.295 17.5318 20.4125 13.9468 19.2635 12.5816C19.7869 12.0077 20.1328 11.2938 20.2572 10.5088C20.4253 9.44872 20.1704 8.38668 19.5397 7.51822L15.7124 2.24836C15.5573 2.03467 15.3023 1.91635 15.0393 1.93636C14.7761 1.95596 14.5418 2.11054 14.4201 2.34484C14.3876 2.407 13.6902 3.75778 13.1032 5.49388C11.2711 5.5144 9.76934 5.76059 9.7014 5.77186C9.44099 5.81512 9.22142 5.99012 9.12138 6.23437C9.02124 6.47863 9.05475 6.75732 9.20984 6.9709L13.0372 12.2408C13.6679 13.1092 14.599 13.68 15.6591 13.8482C15.8722 13.882 16.0853 13.8987 16.297 13.8987C16.9028 13.8987 17.4959 13.7612 18.0397 13.4964C18.275 13.7764 18.6001 14.17 18.9849 14.6545H18.3161C17.8954 14.6545 17.5544 14.9955 17.5544 15.4162C17.5544 15.8369 17.8954 16.1779 18.3161 16.1779H20.156C21.2689 17.6745 22.5587 19.5575 23.6074 21.5003C22.3685 20.2829 20.9917 19.1905 19.4882 18.2337C14.9267 15.3308 10.8167 14.6888 10.6439 14.6629C10.4248 14.6301 10.2019 14.6944 10.0339 14.839C9.86583 14.9838 9.76924 15.1945 9.76924 15.4162C9.76924 15.538 9.786 18.4448 11.2387 22.492C12.5506 26.1465 15.3373 31.4531 21.1672 36.135V38.9264L17.9364 51.0419C17.8753 51.2705 17.9241 51.5146 18.0683 51.7023C18.2124 51.89 18.4357 52 18.6723 52H33.3267C33.5634 52 33.7866 51.89 33.9307 51.7023C34.0749 51.5146 34.1237 51.2707 34.0626 51.0419L30.8318 38.9264V36.135C36.6616 31.4531 39.4484 26.1465 40.7603 22.492C42.2131 18.4448 42.2298 15.538 42.2298 15.4162C42.2298 15.1945 42.1331 14.9838 41.9651 14.839C41.7971 14.6943 41.5746 14.6299 41.355 14.6629C41.2542 14.6781 38.8475 15.0503 35.679 16.5086C33.6029 17.4641 30.9077 19.0372 28.3851 21.5131C29.4352 19.5663 30.7283 17.678 31.8436 16.1779H33.6828C34.1035 16.1779 34.4445 15.8369 34.4445 15.4162C34.4445 14.9955 34.1035 14.6545 33.6828 14.6545H33.0145C33.3992 14.1701 33.7241 13.7765 33.9594 13.4965C34.5033 13.7612 35.0963 13.8987 35.7022 13.8987ZM40.7966 7.12213L39.6464 8.70579C39.5922 8.18447 39.4936 7.62629 39.3466 7.02849C39.883 7.04677 40.3799 7.08283 40.7966 7.12213ZM12.3526 8.70579L11.2022 7.12183C11.6185 7.08252 12.1153 7.04667 12.6524 7.02859C12.5054 7.62639 12.4068 8.18447 12.3526 8.70579ZM17.7545 11.8981C17.2152 12.2897 16.5558 12.448 15.8976 12.3435C15.2395 12.2391 14.6614 11.8848 14.2698 11.3456C13.1775 9.84166 14.3361 6.28759 15.2383 4.1882L18.307 8.41339C19.1153 9.52641 18.8675 11.0897 17.7545 11.8981ZM28.4943 2.05488V4.00904C28.1446 3.62016 27.7352 3.22732 27.2662 2.83112C27.7108 2.5307 28.1339 2.26796 28.4943 2.05488ZM23.5047 7.27478V2.05275C25.4685 3.22132 28.4944 5.41598 28.4944 7.27478C28.4944 8.65044 27.3752 9.76955 25.9996 9.76955C24.6241 9.76955 23.5047 8.65044 23.5047 7.27478ZM12.6961 22.0424C11.7947 19.5518 11.4721 17.4989 11.3567 16.3671C12.7772 16.7132 15.6308 17.5847 18.6704 19.5189C21.1884 21.1214 23.3268 23.1266 25.0257 25.4792C26.9914 28.2009 28.373 31.4033 29.1418 35.0079H27.3677C26.3936 30.7348 24.4765 27.0973 21.6624 24.1897C21.3699 23.8873 20.8877 23.8794 20.5853 24.1721C20.283 24.4646 20.2752 24.9469 20.5678 25.2492C23.1107 27.8766 24.8678 31.1567 25.8017 35.0079H22.1965C16.6169 30.5533 13.9505 25.5089 12.6961 22.0424ZM29.3084 36.5312V38.2644H22.6905V36.5312H29.3084ZM32.3353 50.4764H29.1088L28.98 49.5095C28.9244 49.0925 28.5413 48.7993 28.1243 48.8551C27.7073 48.9107 27.4144 49.2937 27.4699 49.7108L27.572 50.4763H19.6638L22.5141 39.7877H26.1468L27.0356 46.4542C27.0866 46.8371 27.4138 47.1153 27.7898 47.1153C27.8233 47.1153 27.8572 47.1131 27.8913 47.1085C28.3083 47.053 28.6012 46.6699 28.5457 46.2529L27.6836 39.7877H29.4849L32.3353 50.4764ZM36.2676 17.9149C38.1088 17.0627 39.6939 16.5988 40.6422 16.3677C40.5267 17.4998 40.204 19.5523 39.3029 22.0424C38.1069 25.3475 35.628 30.0872 30.5637 34.3824C29.8307 31.1081 28.6092 28.1478 26.9206 25.5537C29.8487 21.4679 33.6027 19.148 36.2676 17.9149ZM33.692 8.41339L36.7613 4.18749C37.6642 6.28587 38.8237 9.83872 37.7292 11.3456C37.3376 11.8848 36.7595 12.2391 36.1014 12.3435C35.4432 12.4479 34.7838 12.2897 34.2446 11.8981C33.1315 11.0897 32.8837 9.52652 33.692 8.41339Z" fill="#AE7C78"/>
<path d="M19.1328 21.9565C18.5944 21.5509 18.0279 21.1634 17.4487 20.8045C17.091 20.5828 16.6216 20.6931 16.4 21.0507C16.1784 21.4083 16.2886 21.8778 16.6462 22.0995C17.1861 22.4341 17.7143 22.7955 18.2162 23.1733C18.3535 23.2767 18.5143 23.3266 18.6738 23.3266C18.9048 23.3266 19.1331 23.2219 19.2829 23.0232C19.5361 22.6871 19.4687 22.2096 19.1328 21.9565Z" fill="#AE7C78"/>
</g>
<defs>
<clipPath id="clip0_48_51">
<rect width="52" height="52" fill="white"/>
</clipPath>
</defs>
</svg>
